<svg width="50" height="52" viewBox="0 0 50 52" fill="none" xmlns="http://www.w3.org/2000/svg">
<g id="thermometer" clip-path="url(#clip0_3_12650)">
<path id="Vector" d="M29.4182 31.9482V7.57822C29.4182 6.1432 28.8816 4.76696 27.9263 3.75225C26.9711 2.73754 25.6755 2.16748 24.3246 2.16748C22.9738 2.16748 21.6782 2.73754 20.723 3.75225C19.7677 4.76696 19.2311 6.1432 19.2311 7.57822V31.9482C17.5956 33.109 16.3549 34.7977 15.6922 36.765C15.0296 38.7323 14.9801 40.8738 15.551 42.8733C16.122 44.8728 17.2831 46.6242 18.863 47.8689C20.4429 49.1136 22.3577 49.7855 24.3246 49.7855C26.2916 49.7855 28.2064 49.1136 29.7863 47.8689C31.3662 46.6242 32.5273 44.8728 33.0983 42.8733C33.6692 40.8738 33.6197 38.7323 32.9571 36.765C32.2944 34.7977 31.0537 33.109 29.4182 31.9482Z" stroke="white" stroke-width="2.99376" stroke-linecap="round" stroke-linejoin="round"/>
</g>
<defs>
<clipPath id="clip0_3_12650">
<rect width="48.8981" height="51.9431" fill="white" transform="translate(0.894531 0.00317383)"/>
</clipPath>
</defs>
</svg>
