<svg width="50" height="49" viewBox="0 0 50 49" fill="none" xmlns="http://www.w3.org/2000/svg">
<g id="users" clip-path="url(#clip0_3_12635)">
<path id="Vector" d="M35.5304 42.6818V38.607C35.5304 36.4455 34.6718 34.3726 33.1434 32.8443C31.615 31.3159 29.5421 30.4573 27.3807 30.4573H11.0813C8.9199 30.4573 6.84699 31.3159 5.31863 32.8443C3.79027 34.3726 2.93164 36.4455 2.93164 38.607V42.6818" stroke="white" stroke-width="2.99376" stroke-linecap="round" stroke-linejoin="round"/>
<path id="Vector_2" d="M19.2317 22.3077C23.7327 22.3077 27.3814 18.6589 27.3814 14.158C27.3814 9.65704 23.7327 6.0083 19.2317 6.0083C14.7308 6.0083 11.082 9.65704 11.082 14.158C11.082 18.6589 14.7308 22.3077 19.2317 22.3077Z" stroke="white" stroke-width="2.99376" stroke-linecap="round" stroke-linejoin="round"/>
<path id="Vector_3" d="M47.7548 42.6818V38.607C47.7535 36.8013 47.1525 35.0472 46.0462 33.62C44.9399 32.1929 43.391 31.1736 41.6426 30.7222" stroke="white" stroke-width="2.99376" stroke-linecap="round" stroke-linejoin="round"/>
<path id="Vector_4" d="M33.4932 6.27295C35.2462 6.7218 36.8 7.74132 37.9096 9.1708C39.0191 10.6003 39.6214 12.3584 39.6214 14.168C39.6214 15.9775 39.0191 17.7356 37.9096 19.1651C36.8 20.5946 35.2462 21.6141 33.4932 22.063" stroke="white" stroke-width="2.99376" stroke-linecap="round" stroke-linejoin="round"/>
</g>
<defs>
<clipPath id="clip0_3_12635">
<rect width="48.8981" height="48.8981" fill="white" transform="translate(0.894531 -0.104004)"/>
</clipPath>
</defs>
</svg>
