<svg width="81" height="32" viewBox="0 0 81 32" fill="none" xmlns="http://www.w3.org/2000/svg">
<g id="Clip path group">
<mask id="mask0_2_1158" style="mask-type:luminance" maskUnits="userSpaceOnUse" x="0" y="0" width="81" height="32">
<g id="b">
<path id="Vector" d="M0.72876 0V6.53322H5.19605V25.1096H0.850391V31.5641H16.3957V25.1096H11.9283V6.53322H16.274V0H0.72876ZM44.9744 0.0787136V6.53322H49.4417V25.1096H45.0961V31.5641H56.1738V13.6048L62.775 31.5578L62.9091 31.561L69.3918 13.6048V31.5641H80.5909V25.1096H76.1236V6.53322H80.4693V0.0787136H67.9843L62.8151 14.4746L57.5804 0.0787136H44.9744Z" fill="white"/>
<path id="a" d="M18.4766 0.0798035V6.53431H22.9438V16.7671H40.1391V14.8049C40.1391 14.8049 41.5775 13.6996 42.0359 12.6507L42.9561 10.6156C42.9561 10.6156 43.3835 9.47647 43.3835 8.45846L43.1995 6.42333C43.1995 6.42333 42.9107 4.76538 42.4071 4.27224L40.6288 2.23396C40.6288 2.23396 38.3661 0.0798035 35.3691 0.0798035H18.4766ZM29.6757 6.53431H36.2238V12.5165H29.6757V6.53431Z" fill="white"/>
<path id="a_2" d="M18.4766 31.5641V25.1096H22.9438V14.8769H40.1391V16.8391C40.1391 16.8391 41.5775 17.9443 42.0359 18.9932L42.9561 21.0283C42.9561 21.0283 43.3835 22.1675 43.3835 23.1855L43.1995 25.2206C43.1995 25.2206 42.9107 26.8786 42.4071 27.3717L40.6288 29.41C40.6288 29.41 38.3661 31.5641 35.3691 31.5641H18.4766ZM29.6757 25.1096H36.2238V19.1274H29.6757V25.1096Z" fill="white"/>
</g>
</mask>
<g mask="url(#mask0_2_1158)">
<g id="Vector_2">
<path d="M0.72876 1.15576H82.9875V5.34584H0.72876M0.72876 9.53592H78.595V13.7268H0.72876V17.9161H78.595V22.1054H0.72876M0.72876 26.2962H82.9875V30.4871H0.72876" fill="#B6B3EB"/>
<path d="M0.72876 1.15576H82.9875V5.34584H0.72876M0.72876 9.53592H78.595V13.7268H0.72876V17.9161H78.595V22.1054H0.72876M0.72876 26.2962H82.9875V30.4871H0.72876" stroke="#B6B3EB" stroke-width="25.2648"/>
</g>
</g>
</g>
</svg>
