<svg width="78" height="32" viewBox="0 0 78 32" fill="none" xmlns="http://www.w3.org/2000/svg">
<g id="g32">
<path id="path18" fill-rule="evenodd" clip-rule="evenodd" d="M77.3334 16.3088C77.3334 10.9147 74.6825 6.65839 69.6158 6.65839C64.5277 6.65839 61.4492 10.9147 61.4492 16.2667C61.4492 22.609 65.0836 25.8118 70.2999 25.8118C72.844 25.8118 74.768 25.2429 76.2218 24.4422V20.228C74.768 20.9444 73.1005 21.3869 70.984 21.3869C68.9103 21.3869 67.0718 20.6705 66.8366 18.1841H77.2907C77.2907 17.9102 77.3334 16.8145 77.3334 16.3088ZM66.7725 14.3071C66.7725 11.9261 68.2476 10.9358 69.5944 10.9358C70.8985 10.9358 72.2881 11.9261 72.2881 14.3071H66.7725Z" fill="#B6B3EB"/>
<path id="path20" fill-rule="evenodd" clip-rule="evenodd" d="M53.1973 6.65839C51.1022 6.65839 49.7553 7.62765 49.0071 8.30191L48.7291 6.99552H44.0259V31.5641L49.3705 30.4474L49.3919 24.4843C50.1615 25.0322 51.2946 25.8118 53.1759 25.8118C57.0026 25.8118 60.4873 22.7776 60.4873 16.0981C60.4659 9.98758 56.9385 6.65839 53.1973 6.65839ZM51.9145 21.1762C50.6532 21.1762 49.905 20.7337 49.3919 20.1859L49.3705 12.3686C49.9263 11.7575 50.696 11.3361 51.9145 11.3361C53.86 11.3361 55.2068 13.4853 55.2068 16.2456C55.2068 19.0691 53.8814 21.1762 51.9145 21.1762Z" fill="#B6B3EB"/>
<path id="polygon22" fill-rule="evenodd" clip-rule="evenodd" d="M42.0376 0L36.6716 1.11676V5.41521L42.0376 4.27738V0Z" fill="#B6B3EB"/>
<path id="rect24" fill-rule="evenodd" clip-rule="evenodd" d="M36.6716 7.0166H42.0376V25.4536H36.6716V7.0166Z" fill="#B6B3EB"/>
<path id="path26" fill-rule="evenodd" clip-rule="evenodd" d="M30.9207 8.57584L30.5787 7.0166H25.9609V25.4536H31.3056V12.9586C32.5669 11.3361 34.7047 11.6311 35.3675 11.8629V7.0166C34.6834 6.76375 32.1821 6.30019 30.9207 8.57584Z" fill="#B6B3EB"/>
<path id="path28" fill-rule="evenodd" clip-rule="evenodd" d="M20.2316 2.44421L15.0153 3.5399L14.9939 20.4177C14.9939 23.5361 17.3669 25.8329 20.5309 25.8329C22.284 25.8329 23.5667 25.5168 24.2722 25.1375V20.8601C23.5881 21.1341 20.2102 22.1033 20.2102 18.9848V11.5047H24.2722V7.01659H20.2102L20.2316 2.44421Z" fill="#B6B3EB"/>
<path id="path30" fill-rule="evenodd" clip-rule="evenodd" d="M5.77961 12.3686C5.77961 11.5468 6.46372 11.2308 7.59678 11.2308C9.22155 11.2308 11.2739 11.7154 12.8986 12.5793V7.62765C11.1242 6.93231 9.3712 6.65839 7.59678 6.65839C3.25695 6.65839 0.37085 8.8919 0.37085 12.6214C0.37085 18.437 8.49468 17.5099 8.49468 20.0173C8.49468 20.9866 7.63954 21.3026 6.44234 21.3026C4.66793 21.3026 2.40181 20.5862 0.606013 19.617V24.6318C2.59421 25.4747 4.60379 25.8329 6.44234 25.8329C10.8891 25.8329 13.9462 23.6626 13.9462 19.8909C13.9248 13.6118 5.77961 14.7285 5.77961 12.3686Z" fill="#B6B3EB"/>
</g>
</svg>
