<svg width="132" height="32" viewBox="0 0 132 32" fill="none" xmlns="http://www.w3.org/2000/svg">
<g id="Group 13">
<path id="Vector" fill-rule="evenodd" clip-rule="evenodd" d="M42.5694 31.1111H47.5387V17.5057H50.2076C57.2015 17.5057 66.4972 16.9606 66.4972 9.06994C66.4972 1.08801 57.7546 0.453014 50.7599 0.453014H36.7712V1.26923C41.7413 1.81358 42.5694 2.53991 42.5694 5.35084V31.1111ZM47.5387 5.35077C47.5387 2.62979 47.8144 2.26735 52.5087 2.26735C57.6618 2.26735 60.7904 4.5347 60.7904 9.06994C60.7904 14.9659 55.4534 15.782 50.0237 15.782H47.5387V5.35077ZM71.835 5.89519C71.835 2.1767 71.0063 1.90499 66.0366 1.26923V0.453014H77.6319L95.7616 25.3971H95.8534V0.453014H98.8911V31.1111H94.4731L74.963 4.44482H74.8712V31.1111H71.835V5.89519ZM131.469 30.2941C128.709 31.0205 126.04 31.5641 120.609 31.5641C109.75 31.5641 103.86 24.0366 103.86 14.7839C103.86 6.53019 107.358 0 119.229 0C127.972 0 131.101 3.62715 131.469 6.71141H125.855C125.58 5.26027 124.567 2.08545 118.861 2.08545C112.695 2.08545 109.475 6.62152 109.475 13.6053C109.475 20.0456 111.131 29.5693 123.831 29.5693C127.236 29.5693 130.825 28.5712 131.469 28.39V30.2941Z" fill="#B6B3EB"/>
<g id="Group 11">
<path id="Vector_2" fill-rule="evenodd" clip-rule="evenodd" d="M24.668 17.9622H21.0682C21.2181 17.593 21.1438 17.0761 20.8435 16.4842L18.8183 13.1584L15.4434 7.31792C15.4434 7.31792 14.1686 4.95262 12.2938 3.54849C13.4937 3.99211 28.6434 12.7142 28.6434 12.7142C31.1187 14.1927 33.2931 17.8883 24.668 17.9622ZM13.2683 27.3505C10.793 28.7546 6.36804 28.7546 10.6432 21.3635C11.393 20.1058 12.443 18.2587 12.443 18.2587C12.7433 18.6279 13.1934 18.8494 13.8683 18.8494H24.668C24.668 18.8494 27.3686 18.9232 29.5437 18.0372C28.5685 18.7756 13.2683 27.3505 13.2683 27.3505ZM8.09361 6.94811C8.09361 4.1398 10.3435 0.36919 14.6936 7.68767C15.4434 9.0186 16.4935 10.7925 16.4935 10.7925C16.0433 10.8658 15.6682 11.1623 15.2935 11.7537L13.3433 15.1538L9.89345 20.9193C9.89345 20.9193 8.46819 23.2107 8.1685 25.5772C8.01803 24.2456 8.09361 6.94811 8.09361 6.94811ZM16.7182 0C7.86824 0 0.743164 7.02255 0.743164 15.7452C0.743164 24.4672 7.86824 31.5641 16.7182 31.5641C25.5688 31.5641 32.7688 24.4672 32.7688 15.7452C32.7688 7.02255 25.5688 0 16.7182 0Z" fill="#B6B3EB"/>
<path id="Vector_3" d="M29.6312 29.7896H29.9063C30.1936 29.7896 30.3761 29.6348 30.3761 29.4C30.3761 29.1358 30.1807 29.0197 29.8971 29.016C29.7669 29.016 29.6747 29.0287 29.6312 29.0408V29.7896ZM29.3628 28.8557C29.4986 28.8278 29.6932 28.8122 29.8787 28.8122C30.166 28.8122 30.3508 28.8642 30.4811 28.9803C30.5861 29.0711 30.645 29.2114 30.645 29.3693C30.645 29.6409 30.4718 29.8205 30.2526 29.8937V29.9027C30.4129 29.9572 30.5087 30.1036 30.5578 30.3165C30.6259 30.6026 30.6757 30.8004 30.7193 30.8797H30.4405C30.4061 30.8192 30.3607 30.6449 30.3017 30.3897C30.2397 30.106 30.1279 30.0001 29.8842 29.9905H29.6312V30.8797H29.3628V28.8557Z" fill="#B6B3EB"/>
<path id="Vector_4" d="M28.5047 29.857C28.5065 30.6579 29.1642 31.3045 29.9754 31.3057C30.7885 31.3045 31.4436 30.6579 31.4461 29.857C31.4436 29.0573 30.7885 28.4113 29.9754 28.4095C29.1642 28.4113 28.5065 29.0574 28.5047 29.857ZM28.2468 29.857C28.2468 28.917 29.0199 28.1548 29.9754 28.1548C30.9303 28.1548 31.7058 28.917 31.7058 29.857C31.7058 30.7988 30.9303 31.5622 29.9754 31.5622C29.0199 31.5622 28.2468 30.7989 28.2468 29.857Z" fill="#B6B3EB"/>
</g>
</g>
</svg>
