<svg width="162" height="33" viewBox="0 0 162 33" fill="none" xmlns="http://www.w3.org/2000/svg">
<g id="Group 12">
<g id="Clip path group">
<mask id="mask0_2_1170" style="mask-type:luminance" maskUnits="userSpaceOnUse" x="0" y="0" width="33" height="33">
<g id="c">
<path id="Vector" d="M20.2463 26.7567C22.3493 26.7312 24.3452 26.4278 26.1118 25.843C26.5562 25.6952 26.9809 25.5317 27.3824 25.3549C26.8908 26.5377 26.1689 27.5244 25.2276 28.2578C23.3709 29.605 21.1805 30.5293 18.8027 30.8819C19.3969 29.8688 19.8769 28.4372 20.2463 26.7567ZM10.3487 29.6305C10.305 29.5945 10.2577 29.5611 10.2042 29.5364C9.37709 29.1389 9.0425 27.3212 9.47345 24.5415C11.0634 25.2459 12.7943 25.8043 14.6136 26.1868C15.9921 26.477 17.3662 26.6564 18.709 26.7259C18.0505 29.547 17.2064 31.0288 16.647 31.0288C16.6113 31.0288 16.5765 31.0349 16.5426 31.0402C14.3263 31.0252 12.226 30.5231 10.3487 29.6305ZM2.66926 20.644C2.54196 20.167 2.46158 19.679 2.42925 19.1868C2.92712 19.8851 3.53295 20.5657 4.25476 21.2235C5.34507 22.2155 6.63882 23.1037 8.08067 23.8652C7.78623 25.4886 7.70325 26.9598 7.88884 28.1452C5.40396 26.2932 3.54454 23.6717 2.66926 20.644ZM21.184 16.7017C21.184 16.1283 21.1751 15.5523 21.1582 14.9789C23.0113 14.8576 24.7271 14.3827 26.1315 13.5868C27.4324 16.123 28.1301 18.799 28.1247 21.3246C28.1238 22.0563 28.0596 22.7519 27.9418 23.4088C27.2726 23.8124 26.5026 24.1624 25.6363 24.4509C24.0981 24.9609 22.3653 25.2388 20.5282 25.2854C20.9708 22.6763 21.184 19.6467 21.184 16.7017ZM14.9259 24.7525C13.0808 24.3629 11.3373 23.7852 9.75896 23.0544C10.2774 20.7557 11.2427 17.9706 12.772 14.8787C12.9942 14.4311 13.2208 13.9905 13.4519 13.5596C14.5217 14.0327 15.6861 14.4082 16.9067 14.665C17.8337 14.8611 18.7616 14.9675 19.669 14.9983C19.686 15.5488 19.6931 16.116 19.6931 16.7017C19.6931 20.1586 19.4129 23.028 19.0079 25.2705C17.6767 25.2133 16.3053 25.0418 14.9259 24.7525ZM5.26656 20.1462C4.00137 18.9942 3.13144 17.7736 2.688 16.5618C3.03954 15.204 3.71942 13.841 4.71962 12.5351C5.66806 11.2969 6.84849 10.1818 8.20201 9.22328C8.59281 9.91888 9.13975 10.5978 9.83658 11.2415C10.4986 11.8527 11.2704 12.4067 12.1261 12.8912C11.8886 13.3355 11.6583 13.7834 11.4355 14.2349C10.1141 16.9039 9.03536 19.7681 8.40187 22.3658C7.22501 21.7124 6.16772 20.9685 5.26656 20.1462ZM20.1722 6.50418C21.8657 7.74677 23.4182 9.34991 24.7164 11.2248C24.9626 11.5801 25.1946 11.9415 25.415 12.3064C24.2257 12.9844 22.7196 13.3898 21.0966 13.5033C20.9592 10.9698 20.6549 8.53207 20.1722 6.50418ZM17.2189 13.2298C16.1411 13.0038 15.1168 12.6775 14.1728 12.2686C15.5629 9.87227 17.0824 7.78898 18.5823 6.24037C19.0507 8.0572 19.4433 10.5002 19.6092 13.5288C18.8196 13.4963 18.0166 13.3986 17.2189 13.2298ZM10.8546 10.1704C10.2381 9.60229 9.77056 9.00958 9.4556 8.41423C10.8511 7.58672 12.3955 6.91222 14.0408 6.42416C15.0196 6.13396 16.01 5.91939 16.9977 5.77077C15.5719 7.34577 14.1479 9.34639 12.8425 11.6064C12.0966 11.1817 11.4283 10.7007 10.8546 10.1704ZM7.6515 5.49288C7.63098 5.56675 7.60957 5.64238 7.59261 5.71976C7.44183 6.41185 7.45967 7.12152 7.63633 7.82504C6.03388 8.91461 4.64021 10.2029 3.53027 11.6504C3.19211 12.091 2.88964 12.5412 2.61573 12.9941C3.44105 9.98835 5.23622 7.37303 7.6515 5.49288ZM9.04874 6.02579C9.2138 5.26424 9.67866 4.58359 10.3969 4.02077C12.1359 3.50896 14.1586 3.63208 16.2848 4.39891C15.3899 4.55193 14.4949 4.75595 13.6125 5.01889C11.9699 5.50431 10.4192 6.16914 8.99878 6.97642C8.96666 6.65544 8.98182 6.3371 9.04874 6.02579ZM21.1323 4.092C21.6435 3.76575 22.1146 3.54238 22.5081 3.45004C23.2549 3.74464 23.9955 4.1219 24.6977 4.59853C23.5708 4.32065 22.3725 4.1518 21.1323 4.092ZM18.6233 2.52052C19.2274 2.58736 19.8724 2.68937 20.5354 2.8415C20.1205 3.06135 19.6904 3.33572 19.2523 3.6655C19.0578 3.23195 18.8482 2.8503 18.6233 2.52052ZM17.0093 3.09653C16.3356 2.84238 15.67 2.6454 15.0133 2.50469C15.5398 2.44665 16.0724 2.41324 16.6149 2.41324C16.8683 2.41588 17.1797 2.71663 17.5053 3.29791C17.3403 3.22844 17.1752 3.15984 17.0093 3.09653ZM0.621582 16.7272C0.621582 18.2274 0.840179 19.6775 1.23901 21.0538C1.2631 21.1461 1.2863 21.2385 1.31396 21.3308C1.31931 21.3475 1.32734 21.3633 1.33359 21.3818C3.35361 27.8198 9.44936 32.5097 16.6354 32.5097C19.9599 32.5097 23.0497 31.5054 25.6122 29.7906C25.6381 29.7756 25.6639 29.7633 25.6871 29.7475C25.8388 29.6455 25.986 29.5382 26.1288 29.4256C29.0758 27.2808 31.2511 24.1651 32.1683 20.5604C32.2201 20.3951 32.2647 20.2263 32.3022 20.0557C32.3111 20.0143 32.3138 19.9756 32.3156 19.9352C32.5341 18.8984 32.6484 17.8255 32.6484 16.728C32.6484 14.5981 32.2254 12.5307 31.3894 10.5855C31.2288 10.2117 30.7925 10.0367 30.4133 10.1959C30.0341 10.3524 29.8574 10.7842 30.0172 11.1571C30.7747 12.9203 31.1583 14.7951 31.1583 16.728C31.1583 17.9126 31.0093 19.0628 30.7318 20.1647C30.5115 20.8594 30.1251 21.5023 29.5907 22.0862C29.604 21.8373 29.6121 21.5858 29.613 21.3282C29.6192 18.5123 28.8287 15.5382 27.3636 12.7426C28.4379 11.8333 29.124 10.7095 29.3587 9.4528C29.4336 9.05443 29.166 8.67189 28.7618 8.59803C28.3567 8.52328 27.9686 8.7871 27.8936 9.18634C27.7384 10.0174 27.3003 10.7798 26.6151 11.427C26.4018 11.0797 26.1805 10.7358 25.9459 10.3973C24.6388 8.50833 23.0854 6.87441 21.3857 5.57027C23.6296 5.71625 25.7032 6.2518 27.3735 7.17165C27.6349 7.3185 27.9829 7.31411 28.2282 7.11273C28.5441 6.8533 28.5869 6.38898 28.3219 6.07768C25.9227 2.77027 21.7729 0.945526 16.6336 0.945526C7.80586 0.944647 0.621582 8.02466 0.621582 16.7272Z" fill="white"/>
</g>
</mask>
<g mask="url(#mask0_2_1170)">
<path id="Vector_2" d="M0.621582 0.944641H32.6484V32.5096H0.621582V0.944641Z" fill="#B6B3EB"/>
</g>
</g>
<path id="Vector_3" d="M36.1731 7.98154H44.2586V9.61637H41.2892V17.8158H39.1451V9.61637H36.174L36.1731 7.98154ZM45.3935 17.8151V7.98081H47.5367V11.8625H51.3099V7.98095H53.479V17.8151H51.3376V13.4965H47.5366V17.8151H45.3935ZM55.225 7.98154H61.9151V9.61637H57.3691V11.9186H61.6259V13.5526H57.3691V16.182H62.0676V17.816H55.2259L55.225 7.98154ZM72.5583 7.98154H74.9753L76.717 15.3783H76.744L78.3483 7.98154H80.3932L77.8504 17.8158H75.4744L73.6785 10.3234H73.6514L71.7143 17.8158H69.2838L66.8516 7.98154H69.0635L70.5964 15.3783H70.6269L72.5583 7.98154ZM81.1216 12.8991C81.1216 9.99793 82.6135 7.77567 85.9155 7.77567C89.2169 7.77567 90.7113 9.99705 90.7113 12.8991C90.7113 15.8011 89.2169 18.0189 85.9155 18.0189C82.6115 18.0189 81.1216 15.8 81.1216 12.8991ZM83.3995 12.8991C83.3995 14.5858 83.801 16.4931 85.9147 16.4931C88.0293 16.4931 88.4307 14.5858 88.4307 12.8991C88.4307 11.2088 88.0293 9.30059 85.9147 9.30059C83.8009 9.30059 83.3995 11.2099 83.3995 12.8991ZM94.2639 17.8151H92.1207V7.98081H96.3623C98.0772 7.99414 99.8323 8.53835 99.8323 10.5424C99.8323 11.8219 98.9893 12.668 97.7595 12.9256V12.9523C99.4049 13.129 99.4049 14.1227 99.5841 15.4857C99.6823 16.1127 99.7636 17.2709 100.164 17.8135H97.8006C97.6222 16.9428 97.524 16.0574 97.4286 15.1708C97.3721 14.6272 97.2334 13.878 96.53 13.8516H94.2646V17.8134L94.2639 17.8151ZM94.2639 12.2168H96.0583C97.0004 12.2003 97.5518 11.7402 97.5518 10.867C97.5518 9.99632 97.0006 9.62779 96.0582 9.61475H94.2639V12.2168ZM101.474 17.8151V7.98081H103.618V16.1812H107.943V17.8151H101.474ZM109.101 7.98154H112.502C115.61 7.95502 117.545 9.47921 117.545 12.8992C117.545 16.3174 115.61 17.8424 112.502 17.8153H109.101V7.98154ZM111.242 16.181H112.348C114.893 16.2077 115.266 14.4637 115.266 12.8991C115.266 11.3319 114.893 9.58896 112.348 9.61622H111.242V16.181ZM122.972 17.8151V7.98081H126.718C128.5 7.87179 130.325 8.60868 130.325 10.5285C130.325 11.604 129.563 12.3543 128.569 12.6796V12.7062C129.828 12.9657 130.766 13.824 130.766 15.2661C130.766 17.2141 128.276 17.9238 126.744 17.8138L122.972 17.8151ZM126.786 16.1803C127.795 16.1803 128.486 16.0028 128.486 14.8727C128.486 13.7426 127.796 13.565 126.786 13.565H125.112V16.1813L126.786 16.1803ZM126.786 11.932C127.685 11.932 128.181 11.5636 128.181 10.7738C128.181 9.9824 127.684 9.61651 126.786 9.61651H125.112V11.9328L126.786 11.932ZM131.431 17.8151L135.039 7.98081H137.582L141.049 17.8151H138.896L138.176 15.7309H134.224L133.476 17.8151H131.431ZM137.637 14.0971L136.269 9.90151H136.242L134.778 14.0971H137.637ZM148.127 17.8151L144.187 9.64201L144.161 9.66868V17.8137H142.157V7.97934H145.335L149.137 15.7164L149.164 15.6865V7.97744H151.168V17.8125L148.127 17.8151ZM155.054 12.2309H155.081L158.399 7.98081H160.9L157.237 12.3805L161.218 17.8153H158.551L155.082 12.8025H155.055V17.8153H152.914V7.98066H155.055L155.054 12.2309Z" fill="#B6B3EB"/>
</g>
</svg>
