<svg width="21" height="20" viewBox="0 0 21 20" fill="none" xmlns="http://www.w3.org/2000/svg">
<g id="instagram">
<path id="Combo Shape" fill-rule="evenodd" clip-rule="evenodd" d="M5.3335 0.833252C2.57207 0.833252 0.333496 3.07183 0.333496 5.83325V14.1666C0.333496 16.928 2.57207 19.1666 5.3335 19.1666H15.3335C18.0949 19.1666 20.3335 16.928 20.3335 14.1666V5.83325C20.3335 3.07183 18.0949 0.833252 15.3335 0.833252H5.3335ZM16.3335 5.41658C16.8858 5.41658 17.3335 5.00618 17.3335 4.49992C17.3335 3.99366 16.8858 3.58325 16.3335 3.58325C15.7812 3.58325 15.3335 3.99366 15.3335 4.49992C15.3335 5.00618 15.7812 5.41658 16.3335 5.41658ZM15.3335 9.99992C15.3335 12.5312 13.0949 14.5833 10.3335 14.5833C7.57207 14.5833 5.3335 12.5312 5.3335 9.99992C5.3335 7.46861 7.57207 5.41658 10.3335 5.41658C13.0949 5.41658 15.3335 7.46861 15.3335 9.99992ZM10.3335 12.7499C11.9904 12.7499 13.3335 11.5187 13.3335 9.99992C13.3335 8.48114 11.9904 7.24992 10.3335 7.24992C8.67664 7.24992 7.3335 8.48114 7.3335 9.99992C7.3335 11.5187 8.67664 12.7499 10.3335 12.7499Z" fill="#B6B3EB"/>
</g>
</svg>
