<svg width="16" height="16" viewBox="0 0 16 16" fill="none" xmlns="http://www.w3.org/2000/svg">
<g id="Star">
<path id="Stroke 1" fill-rule="evenodd" clip-rule="evenodd" d="M9.25371 1.48092L10.7766 4.52321C10.9258 4.82188 11.2139 5.02898 11.548 5.0769L14.9546 5.56726C15.7963 5.68878 16.1312 6.70887 15.5221 7.29337L13.0586 9.66045C12.8166 9.89322 12.7064 10.2278 12.7636 10.5564L13.345 13.8983C13.4882 14.7249 12.6083 15.3557 11.856 14.9646L8.81117 13.3857C8.51268 13.2308 8.15518 13.2308 7.85582 13.3857L4.811 14.9646C4.05869 15.3557 3.17882 14.7249 3.32287 13.8983L3.90337 10.5564C3.96064 10.2278 3.85044 9.89322 3.60834 9.66045L1.1449 7.29337C0.535759 6.70887 0.870698 5.68878 1.71238 5.56726L5.11904 5.0769C5.45311 5.02898 5.74206 4.82188 5.89131 4.52321L7.41328 1.48092C7.78987 0.728691 8.87712 0.728691 9.25371 1.48092Z" fill="#FFB800"/>
</g>
</svg>
