<svg width="19" height="16" viewBox="0 0 19 16" fill="none" xmlns="http://www.w3.org/2000/svg">
<g id="twitter">
<path id="Vector" d="M12.6193 0.666748C10.5155 0.666748 8.80996 2.30837 8.80996 4.33341C8.80996 4.63942 8.8489 4.93667 8.92228 5.22082C6.89936 5.22082 3.85239 4.8459 1.30769 2.50889C0.969307 2.19812 0.345337 2.4059 0.368808 2.84445C0.745933 9.89085 4.03802 11.9462 5.73335 12.0742C4.6386 13.0653 3.04835 13.8476 1.44814 14.1988C1.02582 14.2914 0.921488 14.7152 1.33445 14.8383C2.47948 15.1797 4.11842 15.3112 5.0006 15.3334C11.2414 15.3334 16.3139 10.5183 16.4268 4.53718C17.2461 4.04874 17.771 2.98821 18.0659 2.23691C18.1377 2.05394 17.8105 1.84075 17.6147 1.91549C17.0026 2.14907 16.2256 2.20444 15.5637 2.00674C14.865 1.18858 13.8055 0.666748 12.6193 0.666748Z" fill="#B6B3EB"/>
</g>
</svg>
